# WaveFront *.obj file (generated by Autodesk ATF)

mtllib 2f62fd43-4aad-4de8-be8a-46a320a1b35c.mtl

g Body1

v -5.000000 -0.000000 5.000000
v -4.941402 0.763246 5.000000
v -4.766982 1.508603 5.000000
v -4.480828 2.218599 5.000000
v -4.089647 2.876593 5.000000
v -3.602608 3.467163 5.000000
v -3.031127 3.976464 5.000000
v -2.388599 4.392561 5.000000
v -1.690084 4.705700 5.000000
v -0.951956 4.908542 5.000000
v -0.191514 4.996331 5.000000
v 0.573417 4.967010 5.000000
v 1.324908 4.821267 5.000000
v 2.045343 4.562518 5.000000
v 2.717838 4.196827 5.000000
v 3.326629 3.732766 5.000000
v 3.857446 3.181212 5.000000
v 4.297848 2.555093 5.000000
v 4.637512 1.869085 5.000000
v 4.868477 1.139268 5.000000
v 4.985329 0.382746 5.000000
v 4.985329 -0.382746 5.000000
v 4.868477 -1.139268 5.000000
v 4.637512 -1.869085 5.000000
v 4.297848 -2.555093 5.000000
v 3.857446 -3.181212 5.000000
v 3.326629 -3.732766 5.000000
v 2.717838 -4.196827 5.000000
v 2.045343 -4.562518 5.000000
v 1.324908 -4.821267 5.000000
v 0.573417 -4.967010 5.000000
v -0.191514 -4.996331 5.000000
v -0.951956 -4.908542 5.000000
v -1.690084 -4.705700 5.000000
v -2.388599 -4.392561 5.000000
v -3.031127 -3.976464 5.000000
v -3.602608 -3.467163 5.000000
v -4.089647 -2.876593 5.000000
v -4.480828 -2.218599 5.000000
v -4.766982 -1.508603 5.000000
v -4.941402 -0.763246 5.000000
v -5.000000 -0.000000 0.000000
v -4.941402 -0.763246 0.000000
v -4.766982 -1.508603 0.000000
v -4.480828 -2.218599 0.000000
v -4.089647 -2.876593 0.000000
v -3.602608 -3.467163 0.000000
v -3.031127 -3.976464 0.000000
v -2.388599 -4.392561 0.000000
v -1.690084 -4.705700 0.000000
v -0.951956 -4.908542 0.000000
v -0.191514 -4.996331 0.000000
v 0.573417 -4.967010 0.000000
v 1.324908 -4.821267 0.000000
v 2.045343 -4.562518 0.000000
v 2.717838 -4.196827 0.000000
v 3.326629 -3.732766 0.000000
v 3.857446 -3.181212 0.000000
v 4.297848 -2.555093 0.000000
v 4.637512 -1.869085 0.000000
v 4.868477 -1.139268 0.000000
v 4.985329 -0.382746 0.000000
v 4.985329 0.382746 0.000000
v 4.868477 1.139268 0.000000
v 4.637512 1.869085 0.000000
v 4.297848 2.555093 0.000000
v 3.857446 3.181212 0.000000
v 3.326629 3.732766 0.000000
v 2.717838 4.196827 0.000000
v 2.045343 4.562518 0.000000
v 1.324908 4.821267 0.000000
v 0.573417 4.967010 0.000000
v -0.191514 4.996331 0.000000
v -0.951956 4.908542 0.000000
v -1.690084 4.705700 0.000000
v -2.388599 4.392561 0.000000
v -3.031127 3.976464 0.000000
v -3.602608 3.467163 0.000000
v -4.089647 2.876593 0.000000
v -4.480828 2.218599 0.000000
v -4.766982 1.508603 0.000000
v -4.941402 0.763246 0.000000
vt -0.500000 1.494172 0.000000
vt -0.000000 1.494172 0.000000
vt -0.500000 1.570796 0.000000
vt -0.000000 1.570796 0.000000
vt -0.500000 -1.570796 0.000000
vt -0.000000 -1.570796 0.000000
vt -0.500000 -1.494172 0.000000
vt -0.000000 -1.494172 0.000000
vt -0.500000 -1.417548 0.000000
vt -0.000000 -1.417548 0.000000
vt -0.500000 -1.340924 0.000000
vt -0.000000 -1.340924 0.000000
vt -0.500000 -1.264299 0.000000
vt -0.000000 -1.264299 0.000000
vt -0.500000 -1.187675 0.000000
vt -0.000000 -1.187675 0.000000
vt -0.500000 -1.111051 0.000000
vt -0.000000 -1.111051 0.000000
vt -0.500000 -1.034427 0.000000
vt -0.000000 -1.034427 0.000000
vt -0.500000 -0.957803 0.000000
vt -0.000000 -0.957803 0.000000
vt -0.500000 -0.881178 0.000000
vt -0.000000 -0.881178 0.000000
vt -0.500000 -0.804554 0.000000
vt -0.000000 -0.804554 0.000000
vt -0.500000 -0.727930 0.000000
vt -0.000000 -0.727930 0.000000
vt -0.500000 -0.651306 0.000000
vt -0.000000 -0.651306 0.000000
vt -0.500000 -0.574682 0.000000
vt -0.000000 -0.574682 0.000000
vt -0.500000 -0.498057 0.000000
vt -0.000000 -0.498057 0.000000
vt -0.500000 -0.421433 0.000000
vt -0.000000 -0.421433 0.000000
vt -0.500000 -0.344809 0.000000
vt -0.000000 -0.344809 0.000000
vt -0.500000 -0.268185 0.000000
vt -0.000000 -0.268185 0.000000
vt -0.500000 -0.191561 0.000000
vt -0.000000 -0.191561 0.000000
vt -0.500000 -0.114936 0.000000
vt -0.000000 -0.114936 0.000000
vt -0.500000 -0.038312 0.000000
vt -0.000000 -0.038312 0.000000
vt -0.500000 0.038312 0.000000
vt -0.000000 0.038312 0.000000
vt -0.500000 0.114936 0.000000
vt -0.000000 0.114936 0.000000
vt -0.500000 0.191561 0.000000
vt -0.000000 0.191561 0.000000
vt -0.500000 0.268185 0.000000
vt -0.000000 0.268185 0.000000
vt -0.500000 0.344809 0.000000
vt -0.000000 0.344809 0.000000
vt -0.500000 0.421433 0.000000
vt -0.000000 0.421433 0.000000
vt -0.500000 0.498057 0.000000
vt -0.000000 0.498057 0.000000
vt -0.500000 0.574682 0.000000
vt -0.000000 0.574682 0.000000
vt -0.500000 0.651306 0.000000
vt -0.000000 0.651306 0.000000
vt -0.500000 0.727930 0.000000
vt -0.000000 0.727930 0.000000
vt -0.500000 0.804554 0.000000
vt -0.000000 0.804554 0.000000
vt -0.500000 0.881178 0.000000
vt -0.000000 0.881178 0.000000
vt -0.500000 0.957803 0.000000
vt -0.000000 0.957803 0.000000
vt -0.500000 1.034427 0.000000
vt -0.000000 1.034427 0.000000
vt -0.500000 1.111051 0.000000
vt -0.000000 1.111051 0.000000
vt -0.500000 1.187675 0.000000
vt -0.000000 1.187675 0.000000
vt -0.500000 1.264299 0.000000
vt -0.000000 1.264299 0.000000
vt -0.500000 1.340924 0.000000
vt -0.000000 1.340924 0.000000
vt -0.500000 1.417548 0.000000
vt -0.000000 1.417548 0.000000
vt -0.494140 0.076325 0.000000
vt -0.500000 -0.000000 0.000000
vt 0.429785 -0.255509 0.000000
vt -0.494140 -0.076325 0.000000
vt -0.476698 -0.150860 0.000000
vt -0.448083 -0.221860 0.000000
vt -0.408965 -0.287659 0.000000
vt 0.385745 -0.318121 0.000000
vt -0.360261 -0.346716 0.000000
vt 0.332663 -0.373277 0.000000
vt -0.303113 -0.397646 0.000000
vt 0.271784 -0.419683 0.000000
vt -0.238860 -0.439256 0.000000
vt 0.204534 -0.456252 0.000000
vt -0.169008 -0.470570 0.000000
vt 0.132491 -0.482127 0.000000
vt -0.095196 -0.490854 0.000000
vt 0.057342 -0.496701 0.000000
vt -0.019151 -0.499633 0.000000
vt 0.463751 -0.186909 0.000000
vt 0.057342 0.496701 0.000000
vt -0.019151 0.499633 0.000000
vt -0.095196 0.490854 0.000000
vt 0.486848 -0.113927 0.000000
vt 0.463751 0.186909 0.000000
vt 0.429785 0.255509 0.000000
vt 0.385745 0.318121 0.000000
vt 0.486848 0.113927 0.000000
vt 0.498533 -0.038275 0.000000
vt 0.498533 0.038275 0.000000
vt 0.332663 0.373277 0.000000
vt 0.271784 0.419683 0.000000
vt 0.204534 0.456252 0.000000
vt 0.132491 0.482127 0.000000
vt -0.169008 0.470570 0.000000
vt -0.238860 0.439256 0.000000
vt -0.303113 0.397646 0.000000
vt -0.360261 0.346716 0.000000
vt -0.408965 0.287659 0.000000
vt -0.448083 0.221860 0.000000
vt -0.476698 0.150860 0.000000
vt 0.494140 -0.076325 0.000000
vt 0.500000 -0.000000 0.000000
vt -0.429785 -0.255509 0.000000
vt 0.494140 0.076325 0.000000
vt 0.476698 0.150860 0.000000
vt 0.448083 0.221860 0.000000
vt 0.408965 0.287659 0.000000
vt 0.360261 0.346716 0.000000
vt 0.303113 0.397646 0.000000
vt 0.238860 0.439256 0.000000
vt 0.169008 0.470570 0.000000
vt 0.095196 0.490854 0.000000
vt 0.019151 0.499633 0.000000
vt -0.057342 0.496701 0.000000
vt -0.463751 -0.186909 0.000000
vt -0.132491 0.482127 0.000000
vt -0.204534 0.456252 0.000000
vt -0.271784 0.419683 0.000000
vt -0.332663 0.373277 0.000000
vt -0.385745 0.318121 0.000000
vt -0.429785 0.255509 0.000000
vt -0.463751 0.186909 0.000000
vt -0.486848 -0.113927 0.000000
vt -0.486848 0.113927 0.000000
vt -0.498533 -0.038275 0.000000
vt -0.498533 0.038275 0.000000
vt -0.385745 -0.318121 0.000000
vt 0.408965 -0.287659 0.000000
vt 0.448083 -0.221860 0.000000
vt 0.476698 -0.150860 0.000000
vt 0.360261 -0.346716 0.000000
vt -0.332663 -0.373277 0.000000
vt 0.303113 -0.397646 0.000000
vt -0.271784 -0.419683 0.000000
vt 0.238860 -0.439256 0.000000
vt -0.204534 -0.456252 0.000000
vt 0.169008 -0.470570 0.000000
vt -0.132491 -0.482127 0.000000
vt 0.095196 -0.490854 0.000000
vt -0.057342 -0.496701 0.000000
vt 0.019151 -0.499633 0.000000
vn -0.098828 0.015265 -0.000000
vn -0.098828 0.015265 -0.000000
vn -0.100000 0.000000 -0.000000
vn -0.100000 0.000000 -0.000000
vn -0.098828 -0.015265 0.000000
vn -0.098828 -0.015265 0.000000
vn -0.095340 -0.030172 0.000000
vn -0.095340 -0.030172 0.000000
vn -0.089617 -0.044372 0.000000
vn -0.089617 -0.044372 0.000000
vn -0.081793 -0.057532 0.000000
vn -0.081793 -0.057532 0.000000
vn -0.072052 -0.069343 0.000000
vn -0.072052 -0.069343 0.000000
vn -0.060623 -0.079529 0.000000
vn -0.060623 -0.079529 0.000000
vn -0.047772 -0.087851 0.000000
vn -0.047772 -0.087851 0.000000
vn -0.033802 -0.094114 0.000000
vn -0.033802 -0.094114 0.000000
vn -0.019039 -0.098171 0.000000
vn -0.019039 -0.098171 0.000000
vn -0.003830 -0.099927 0.000000
vn -0.003830 -0.099927 0.000000
vn 0.011468 -0.099340 0.000000
vn 0.011468 -0.099340 0.000000
vn 0.026498 -0.096425 0.000000
vn 0.026498 -0.096425 0.000000
vn 0.040907 -0.091250 0.000000
vn 0.040907 -0.091250 0.000000
vn 0.054357 -0.083937 0.000000
vn 0.054357 -0.083937 0.000000
vn 0.066533 -0.074655 0.000000
vn 0.066533 -0.074655 0.000000
vn 0.077149 -0.063624 0.000000
vn 0.077149 -0.063624 0.000000
vn 0.085957 -0.051102 0.000000
vn 0.085957 -0.051102 0.000000
vn 0.092750 -0.037382 0.000000
vn 0.092750 -0.037382 0.000000
vn 0.097370 -0.022785 0.000000
vn 0.097370 -0.022785 0.000000
vn 0.099707 -0.007655 0.000000
vn 0.099707 -0.007655 0.000000
vn 0.099707 0.007655 0.000000
vn 0.099707 0.007655 0.000000
vn 0.097370 0.022785 0.000000
vn 0.097370 0.022785 0.000000
vn 0.092750 0.037382 0.000000
vn 0.092750 0.037382 0.000000
vn 0.085957 0.051102 0.000000
vn 0.085957 0.051102 0.000000
vn 0.077149 0.063624 0.000000
vn 0.077149 0.063624 0.000000
vn 0.066533 0.074655 0.000000
vn 0.066533 0.074655 0.000000
vn 0.054357 0.083937 0.000000
vn 0.054357 0.083937 0.000000
vn 0.040907 0.091250 0.000000
vn 0.040907 0.091250 0.000000
vn 0.026498 0.096425 0.000000
vn 0.026498 0.096425 0.000000
vn 0.011468 0.099340 0.000000
vn 0.011468 0.099340 0.000000
vn -0.003830 0.099927 -0.000000
vn -0.003830 0.099927 -0.000000
vn -0.019039 0.098171 -0.000000
vn -0.019039 0.098171 -0.000000
vn -0.033802 0.094114 -0.000000
vn -0.033802 0.094114 -0.000000
vn -0.047772 0.087851 -0.000000
vn -0.047772 0.087851 -0.000000
vn -0.060623 0.079529 -0.000000
vn -0.060623 0.079529 -0.000000
vn -0.072052 0.069343 -0.000000
vn -0.072052 0.069343 -0.000000
vn -0.081793 0.057532 -0.000000
vn -0.081793 0.057532 -0.000000
vn -0.089617 0.044372 -0.000000
vn -0.089617 0.044372 -0.000000
vn -0.095340 0.030172 -0.000000
vn -0.095340 0.030172 -0.000000
vn 0.000000 0.000000 0.100000
vn 0.000000 0.000000 0.100000
vn 0.000000 0.000000 0.100000
vn 0.000000 0.000000 0.100000
vn 0.000000 0.000000 0.100000
vn 0.000000 0.000000 0.100000
vn 0.000000 0.000000 0.100000
vn 0.000000 0.000000 0.100000
vn 0.000000 0.000000 0.100000
vn 0.000000 0.000000 0.100000
vn 0.000000 0.000000 0.100000
vn 0.000000 0.000000 0.100000
vn 0.000000 0.000000 0.100000
vn 0.000000 0.000000 0.100000
vn 0.000000 0.000000 0.100000
vn 0.000000 0.000000 0.100000
vn 0.000000 0.000000 0.100000
vn 0.000000 0.000000 0.100000
vn 0.000000 0.000000 0.100000
vn 0.000000 0.000000 0.100000
vn 0.000000 0.000000 0.100000
vn 0.000000 0.000000 0.100000
vn 0.000000 0.000000 0.100000
vn 0.000000 0.000000 0.100000
vn 0.000000 0.000000 0.100000
vn 0.000000 0.000000 0.100000
vn 0.000000 0.000000 0.100000
vn 0.000000 0.000000 0.100000
vn 0.000000 0.000000 0.100000
vn 0.000000 0.000000 0.100000
vn 0.000000 0.000000 0.100000
vn 0.000000 0.000000 0.100000
vn 0.000000 0.000000 0.100000
vn 0.000000 0.000000 0.100000
vn 0.000000 0.000000 0.100000
vn 0.000000 0.000000 0.100000
vn 0.000000 0.000000 0.100000
vn 0.000000 0.000000 0.100000
vn 0.000000 0.000000 0.100000
vn 0.000000 0.000000 0.100000
vn 0.000000 0.000000 0.100000
vn 0.000000 0.000000 -0.100000
vn 0.000000 0.000000 -0.100000
vn 0.000000 0.000000 -0.100000
vn 0.000000 0.000000 -0.100000
vn 0.000000 0.000000 -0.100000
vn 0.000000 0.000000 -0.100000
vn 0.000000 0.000000 -0.100000
vn 0.000000 0.000000 -0.100000
vn 0.000000 0.000000 -0.100000
vn 0.000000 0.000000 -0.100000
vn 0.000000 0.000000 -0.100000
vn 0.000000 0.000000 -0.100000
vn 0.000000 0.000000 -0.100000
vn 0.000000 0.000000 -0.100000
vn 0.000000 0.000000 -0.100000
vn 0.000000 0.000000 -0.100000
vn 0.000000 0.000000 -0.100000
vn 0.000000 0.000000 -0.100000
vn 0.000000 0.000000 -0.100000
vn 0.000000 0.000000 -0.100000
vn 0.000000 0.000000 -0.100000
vn 0.000000 0.000000 -0.100000
vn 0.000000 0.000000 -0.100000
vn 0.000000 0.000000 -0.100000
vn 0.000000 0.000000 -0.100000
vn 0.000000 0.000000 -0.100000
vn 0.000000 0.000000 -0.100000
vn 0.000000 0.000000 -0.100000
vn 0.000000 0.000000 -0.100000
vn 0.000000 0.000000 -0.100000
vn 0.000000 0.000000 -0.100000
vn 0.000000 0.000000 -0.100000
vn 0.000000 0.000000 -0.100000
vn 0.000000 0.000000 -0.100000
vn 0.000000 0.000000 -0.100000
vn 0.000000 0.000000 -0.100000
vn 0.000000 0.000000 -0.100000
vn 0.000000 0.000000 -0.100000
vn 0.000000 0.000000 -0.100000
vn 0.000000 0.000000 -0.100000
vn 0.000000 0.000000 -0.100000
usemtl Steel_-_Satin
f 2/1/1 82/2/2 1/3/3
f 1/3/3 82/2/2 42/4/4
f 1/5/3 42/6/4 41/7/5
f 41/7/5 42/6/4 43/8/6
f 41/7/5 43/8/6 40/9/7
f 40/9/7 43/8/6 44/10/8
f 40/9/7 44/10/8 39/11/9
f 39/11/9 44/10/8 45/12/10
f 39/11/9 45/12/10 38/13/11
f 38/13/11 45/12/10 46/14/12
f 38/13/11 46/14/12 37/15/13
f 37/15/13 46/14/12 47/16/14
f 37/15/13 47/16/14 36/17/15
f 36/17/15 47/16/14 48/18/16
f 36/17/15 48/18/16 35/19/17
f 35/19/17 48/18/16 49/20/18
f 35/19/17 49/20/18 34/21/19
f 34/21/19 49/20/18 50/22/20
f 34/21/19 50/22/20 33/23/21
f 33/23/21 50/22/20 51/24/22
f 33/23/21 51/24/22 32/25/23
f 32/25/23 51/24/22 52/26/24
f 32/25/23 52/26/24 31/27/25
f 31/27/25 52/26/24 53/28/26
f 31/27/25 53/28/26 30/29/27
f 30/29/27 53/28/26 54/30/28
f 30/29/27 54/30/28 29/31/29
f 29/31/29 54/30/28 55/32/30
f 29/31/29 55/32/30 28/33/31
f 28/33/31 55/32/30 56/34/32
f 28/33/31 56/34/32 27/35/33
f 27/35/33 56/34/32 57/36/34
f 27/35/33 57/36/34 26/37/35
f 26/37/35 57/36/34 58/38/36
f 26/37/35 58/38/36 25/39/37
f 25/39/37 58/38/36 59/40/38
f 25/39/37 59/40/38 24/41/39
f 24/41/39 59/40/38 60/42/40
f 24/41/39 60/42/40 23/43/41
f 23/43/41 60/42/40 61/44/42
f 23/43/41 61/44/42 22/45/43
f 22/45/43 61/44/42 62/46/44
f 22/45/43 62/46/44 21/47/45
f 21/47/45 62/46/44 63/48/46
f 21/47/45 63/48/46 20/49/47
f 20/49/47 63/48/46 64/50/48
f 20/49/47 64/50/48 19/51/49
f 19/51/49 64/50/48 65/52/50
f 19/51/49 65/52/50 18/53/51
f 18/53/51 65/52/50 66/54/52
f 18/53/51 66/54/52 17/55/53
f 17/55/53 66/54/52 67/56/54
f 17/55/53 67/56/54 16/57/55
f 16/57/55 67/56/54 68/58/56
f 16/57/55 68/58/56 15/59/57
f 15/59/57 68/58/56 69/60/58
f 15/59/57 69/60/58 14/61/59
f 14/61/59 69/60/58 70/62/60
f 14/61/59 70/62/60 13/63/61
f 13/63/61 70/62/60 71/64/62
f 13/63/61 71/64/62 12/65/63
f 12/65/63 71/64/62 72/66/64
f 12/65/63 72/66/64 11/67/65
f 11/67/65 72/66/64 73/68/66
f 11/67/65 73/68/66 10/69/67
f 10/69/67 73/68/66 74/70/68
f 10/69/67 74/70/68 9/71/69
f 9/71/69 74/70/68 75/72/70
f 9/71/69 75/72/70 8/73/71
f 8/73/71 75/72/70 76/74/72
f 8/73/71 76/74/72 7/75/73
f 7/75/73 76/74/72 77/76/74
f 7/75/73 77/76/74 6/77/75
f 6/77/75 77/76/74 78/78/76
f 6/77/75 78/78/76 5/79/77
f 5/79/77 78/78/76 79/80/78
f 5/79/77 79/80/78 4/81/79
f 4/81/79 79/80/78 80/82/80
f 4/81/79 80/82/80 3/83/81
f 3/83/81 80/82/80 81/84/82
f 3/83/81 81/84/82 2/1/1
f 2/1/1 81/84/82 82/2/2
f 2/85/83 1/86/84 25/87/85
f 25/87/85 1/86/84 41/88/86
f 25/87/85 41/88/86 40/89/87
f 40/89/87 39/90/88 25/87/85
f 25/87/85 39/90/88 38/91/89
f 25/87/85 38/91/89 26/92/90
f 26/92/90 38/91/89 37/93/91
f 26/92/90 37/93/91 27/94/92
f 27/94/92 37/93/91 36/95/93
f 27/94/92 36/95/93 28/96/94
f 28/96/94 36/95/93 35/97/95
f 28/96/94 35/97/95 29/98/96
f 29/98/96 35/97/95 34/99/97
f 29/98/96 34/99/97 30/100/98
f 30/100/98 34/99/97 33/101/99
f 30/100/98 33/101/99 31/102/100
f 31/102/100 33/101/99 32/103/101
f 24/104/102 12/105/103 25/87/85
f 25/87/85 12/105/103 11/106/104
f 25/87/85 11/106/104 10/107/105
f 23/108/106 19/109/107 24/104/102
f 24/104/102 19/109/107 18/110/108
f 24/104/102 18/110/108 17/111/109
f 19/109/107 23/108/106 20/112/110
f 20/112/110 23/108/106 22/113/111
f 20/112/110 22/113/111 21/114/112
f 17/111/109 16/115/113 24/104/102
f 24/104/102 16/115/113 15/116/114
f 24/104/102 15/116/114 14/117/115
f 14/117/115 13/118/116 24/104/102
f 24/104/102 13/118/116 12/105/103
f 10/107/105 9/119/117 25/87/85
f 25/87/85 9/119/117 8/120/118
f 25/87/85 8/120/118 7/121/119
f 7/121/119 6/122/120 25/87/85
f 25/87/85 6/122/120 5/123/121
f 25/87/85 5/123/121 4/124/122
f 4/124/122 3/125/123 25/87/85
f 25/87/85 3/125/123 2/85/83
f 43/126/124 42/127/125 59/128/126
f 59/128/126 42/127/125 82/129/127
f 59/128/126 82/129/127 81/130/128
f 81/130/128 80/131/129 59/128/126
f 59/128/126 80/131/129 79/132/130
f 59/128/126 79/132/130 78/133/131
f 78/133/131 77/134/132 59/128/126
f 59/128/126 77/134/132 76/135/133
f 59/128/126 76/135/133 75/136/134
f 75/136/134 74/137/135 59/128/126
f 59/128/126 74/137/135 73/138/136
f 59/128/126 73/138/136 72/139/137
f 59/128/126 72/139/137 60/140/138
f 60/140/138 72/139/137 71/141/139
f 60/140/138 71/141/139 70/142/140
f 70/142/140 69/143/141 60/140/138
f 60/140/138 69/143/141 68/144/142
f 60/140/138 68/144/142 67/145/143
f 67/145/143 66/146/144 60/140/138
f 60/140/138 66/146/144 65/147/145
f 60/140/138 65/147/145 61/148/146
f 61/148/146 65/147/145 64/149/147
f 61/148/146 64/149/147 62/150/148
f 62/150/148 64/149/147 63/151/149
f 58/152/150 46/153/151 59/128/126
f 59/128/126 46/153/151 45/154/152
f 59/128/126 45/154/152 44/155/153
f 46/153/151 58/152/150 47/156/154
f 47/156/154 58/152/150 57/157/155
f 47/156/154 57/157/155 48/158/156
f 48/158/156 57/157/155 56/159/157
f 48/158/156 56/159/157 49/160/158
f 49/160/158 56/159/157 55/161/159
f 49/160/158 55/161/159 50/162/160
f 50/162/160 55/161/159 54/163/161
f 50/162/160 54/163/161 51/164/162
f 51/164/162 54/163/161 53/165/163
f 51/164/162 53/165/163 52/166/164
f 44/155/153 43/126/124 59/128/126
# 82 vertices
# 166 texture params
# 164 normals
# 160 facets

# 1 groups
